<?xml version="1.0" standalone="no"?>
<!DOCTYPE svg PUBLIC "-//W3C//DTD SVG 20010904//EN"
 "http://www.w3.org/TR/2001/REC-SVG-20010904/DTD/svg10.dtd">
<svg version="1.0" xmlns="http://www.w3.org/2000/svg"
 width="700.000000pt" height="700.000000pt" viewBox="0 0 700.000000 700.000000"
 preserveAspectRatio="xMidYMid meet">
<metadata>
Created by potrace 1.14, written by Peter Selinger 2001-2017
</metadata>
<g transform="translate(0.000000,700.000000) scale(0.100000,-0.100000)"
fill="#000000" stroke="none">
<path d="M3735 6380 c-50 -11 -111 -47 -140 -82 -49 -58 -58 -93 -65 -253 -8
-166 -20 -207 -82 -276 -71 -79 -137 -105 -288 -113 -58 -3 -116 -8 -130 -11
-14 -3 -40 -8 -59 -11 -50 -8 -176 -51 -240 -81 -349 -165 -590 -486 -649
-868 -4 -22 -7 -116 -7 -210 0 -194 7 -218 81 -290 127 -123 345 -78 417 84
16 37 20 71 22 192 5 244 62 388 204 514 121 107 233 148 432 159 366 21 651
230 777 571 34 91 46 184 45 350 0 102 -3 128 -22 171 -51 117 -175 182 -296
154z"/>
<path d="M4864 6224 c-55 -20 -120 -83 -146 -140 -17 -39 -20 -72 -23 -212 -2
-92 -6 -178 -9 -191 -56 -255 -268 -439 -525 -456 -212 -14 -213 -14 -339 -52
-212 -62 -384 -206 -489 -408 -54 -106 -83 -209 -90 -327 -7 -119 5 -169 57
-229 98 -115 260 -128 372 -30 56 50 84 113 92 210 8 93 40 164 98 217 64 59
134 82 270 89 355 18 619 144 839 401 78 91 161 245 199 365 39 129 48 206 47
404 -2 209 -8 234 -73 299 -67 66 -191 93 -280 60z"/>
<path d="M996 4043 c-183 -33 -342 -191 -374 -371 -11 -61 -9 -915 3 -1007 4
-33 20 -126 36 -208 123 -619 503 -1163 1050 -1502 234 -146 575 -274 824
-311 28 -4 57 -8 65 -10 110 -18 390 -24 535 -11 66 6 194 27 323 53 67 13
263 79 358 120 102 43 132 58 259 129 95 53 277 184 350 250 127 117 220 213
285 296 19 24 38 49 42 54 98 123 258 403 301 528 6 15 25 17 209 17 223 1
245 3 367 31 177 41 330 127 461 259 92 92 147 168 197 270 28 59 62 151 70
190 1 8 9 48 17 88 17 91 14 252 -9 357 -88 416 -418 721 -845 782 -25 3
-1039 6 -2253 7 -1635 1 -2225 -2 -2271 -11z m3698 -890 c-1 -386 -3 -428 -30
-568 -94 -487 -387 -915 -804 -1175 -143 -90 -342 -177 -480 -211 -80 -20
-175 -39 -218 -44 -26 -3 -63 -8 -82 -10 -54 -7 -269 -6 -330 0 -84 10 -228
35 -253 44 -12 5 -26 9 -32 10 -98 16 -309 104 -460 190 -162 94 -352 261
-479 420 -221 279 -349 599 -382 955 -5 55 -9 640 -5 744 l1 22 1778 0 1778 0
-2 -377z m806 365 c101 -28 176 -74 241 -146 191 -212 148 -540 -91 -699 -91
-60 -157 -76 -333 -77 l-118 -1 7 70 c11 108 11 107 13 498 l1 369 133 -5 c72
-3 139 -7 147 -9z"/>
</g>
</svg>
