<?xml version="1.0" standalone="no"?>
<!DOCTYPE svg PUBLIC "-//W3C//DTD SVG 20010904//EN"
 "http://www.w3.org/TR/2001/REC-SVG-20010904/DTD/svg10.dtd">
<svg version="1.0" xmlns="http://www.w3.org/2000/svg"
 width="167.000000pt" height="167.000000pt" viewBox="0 0 167.000000 167.000000"
 preserveAspectRatio="xMidYMid meet">
<metadata>
Created by potrace 1.14, written by Peter Selinger 2001-2017
</metadata>
<g transform="translate(0.000000,167.000000) scale(0.100000,-0.100000)"
fill="#000000" stroke="none">
<path d="M1110 1400 l0 -270 280 0 280 0 0 270 0 270 -280 0 -280 0 0 -270z"/>
<path d="M641 1586 c-17 -20 -5 -38 73 -116 l66 -64 -76 -77 c-77 -78 -87
-101 -48 -116 11 -4 39 17 93 71 l76 76 75 -75 c51 -52 81 -75 95 -73 42 6 28
39 -49 117 l-76 76 75 75 c52 51 75 81 73 95 -6 42 -39 28 -117 -49 l-76 -76
-75 75 c-41 41 -80 75 -86 75 -6 0 -17 -6 -23 -14z"/>
<path d="M550 840 l0 -280 280 0 280 0 0 280 0 280 -280 0 -280 0 0 -280z"/>
<path d="M77 1033 c-18 -17 -1 -44 68 -113 l75 -75 -76 -76 c-77 -78 -91 -111
-49 -117 14 -2 44 21 95 73 l75 75 77 -77 c66 -66 81 -76 96 -67 31 20 23 38
-53 114 l-75 74 76 78 c42 43 74 83 72 90 -2 6 -12 16 -21 22 -14 9 -30 -3
-95 -67 l-77 -77 -75 75 c-69 69 -96 86 -113 68z"/>
<path d="M1213 1033 c-30 -11 -11 -50 59 -120 l72 -72 -77 -80 c-53 -54 -75
-84 -71 -95 13 -33 48 -16 121 56 l73 72 73 -72 c73 -73 108 -89 121 -55 5 12
-15 38 -71 95 l-78 78 73 73 c72 73 89 108 56 121 -11 4 -41 -18 -95 -71 l-80
-77 -77 77 c-43 42 -80 77 -82 76 -3 0 -11 -3 -17 -6z"/>
<path d="M0 280 l0 -280 270 0 270 0 0 280 0 280 -270 0 -270 0 0 -280z"/>
<path d="M642 468 c-21 -21 -14 -31 63 -108 l75 -75 -76 -76 c-77 -78 -91
-111 -49 -117 14 -2 44 21 95 73 l75 75 76 -76 c78 -77 111 -91 117 -49 2 14
-21 44 -73 95 l-75 75 76 76 c77 78 87 101 48 116 -11 4 -39 -17 -93 -71 l-76
-76 -75 75 c-77 77 -87 84 -108 63z"/>
</g>
</svg>
