<?xml version="1.0" standalone="no"?>
<!DOCTYPE svg PUBLIC "-//W3C//DTD SVG 20010904//EN"
 "http://www.w3.org/TR/2001/REC-SVG-20010904/DTD/svg10.dtd">
<svg version="1.0" xmlns="http://www.w3.org/2000/svg"
 width="700.000000pt" height="700.000000pt" viewBox="0 0 700.000000 700.000000"
 preserveAspectRatio="xMidYMid meet">
<metadata>
Created by potrace 1.14, written by Peter Selinger 2001-2017
</metadata>
<g transform="translate(0.000000,700.000000) scale(0.100000,-0.100000)"
fill="#000000" stroke="none">
<path d="M3887 6884 c-1 -1 -56 -5 -122 -8 -111 -7 -319 -30 -355 -40 -8 -3
-33 -7 -55 -11 -22 -3 -78 -15 -125 -26 -47 -11 -93 -22 -103 -24 -10 -2 -57
-16 -105 -30 -568 -172 -1057 -479 -1436 -903 -42 -47 -43 -58 -6 -39 39 20
247 102 330 130 74 25 282 85 324 93 11 2 66 13 121 23 91 18 166 30 295 46
196 24 568 24 765 0 22 -3 60 -7 85 -10 39 -5 225 -37 285 -49 11 -2 74 -18
140 -34 575 -147 1105 -444 1510 -847 123 -122 150 -152 220 -240 22 -27 48
-58 57 -69 33 -36 145 -203 200 -297 121 -205 221 -436 283 -650 16 -59 20
-74 36 -149 24 -109 26 -119 35 -177 3 -26 8 -57 10 -68 26 -136 25 -555 -2
-725 -34 -219 -81 -403 -151 -590 -41 -110 -161 -360 -211 -440 -75 -120 -122
-189 -170 -253 -45 -59 -49 -68 -34 -76 53 -28 384 -131 582 -181 69 -17 141
-35 160 -40 28 -8 155 -34 265 -56 11 -2 57 -9 103 -16 76 -11 86 -11 119 7
79 43 81 123 6 207 -172 194 -305 541 -377 983 -11 63 -27 182 -32 225 -2 25
-6 64 -9 86 -4 38 2 50 54 130 224 337 368 742 409 1144 14 140 7 465 -13 600
-13 82 -49 243 -81 353 -130 453 -432 916 -809 1240 -38 33 -72 63 -75 67 -3
4 -58 46 -123 93 -434 317 -937 519 -1457 587 -47 6 -96 13 -110 15 -46 8
-426 24 -433 19z"/>
<path d="M2948 5885 c-2 -2 -52 -6 -112 -9 -60 -4 -123 -8 -140 -11 -17 -2
-53 -7 -81 -10 -92 -11 -111 -14 -255 -41 -153 -28 -428 -114 -600 -186 -650
-273 -1161 -732 -1473 -1321 -103 -193 -194 -445 -233 -642 -2 -11 -6 -31 -9
-45 -29 -143 -40 -269 -40 -470 1 -276 25 -453 97 -700 68 -238 163 -439 331
-705 53 -85 51 -58 21 -280 -51 -379 -119 -632 -235 -870 -53 -111 -89 -165
-185 -284 -30 -38 -35 -50 -31 -82 5 -49 30 -87 65 -101 39 -15 64 -13 197 12
28 5 61 12 75 14 54 9 188 38 241 51 30 8 64 16 75 18 37 7 132 33 289 78 233
68 544 189 737 287 l127 65 48 -20 c41 -17 160 -57 278 -93 40 -12 115 -31
139 -36 11 -2 63 -12 115 -23 53 -11 119 -23 146 -26 28 -3 68 -8 90 -11 137
-19 208 -22 450 -19 149 2 284 6 300 9 17 2 55 8 85 11 213 25 598 121 755
189 17 7 57 23 90 36 107 41 377 184 495 262 434 285 775 658 991 1083 145
286 237 597 265 900 14 153 9 434 -12 563 -2 15 -6 41 -9 57 -2 17 -7 48 -11
70 -16 108 -86 346 -141 480 -169 413 -426 759 -809 1085 -201 172 -553 376
-839 488 -235 91 -549 171 -775 197 -30 3 -73 8 -95 11 -22 2 -116 7 -210 10
-93 3 -178 7 -187 8 -9 2 -18 3 -20 1z m1008 -1813 c86 -36 87 -166 3 -209
-18 -10 -218 -13 -867 -13 -929 0 -884 -3 -918 62 -34 66 5 152 75 167 18 3
402 6 855 5 630 0 829 -3 852 -12z m658 -825 c74 -49 64 -169 -17 -201 -26
-11 -332 -13 -1517 -12 -1412 1 -1486 2 -1511 19 -15 10 -33 31 -39 48 -15 36
-8 103 14 124 42 43 -5 42 1553 41 1425 -1 1490 -2 1517 -19z m-15 -810 c80
-41 87 -148 14 -201 -26 -19 -61 -20 -1502 -20 -812 -1 -1489 2 -1505 6 -96
25 -118 150 -36 206 l33 22 1486 0 c1159 0 1491 -3 1510 -13z"/>
</g>
</svg>
