<?xml version="1.0"?>
<svg fill="#008cff" width="2640" height="740" xmlns="http://www.w3.org/2000/svg" xmlns:svg="http://www.w3.org/2000/svg" version="1">
 <g class="layer">
  <title>Layer 1</title>
  <path d="m2,367l0,367l1573,1.6l0,-1.6l0,-367l958,0l0,-367l-2531,0l0,367zm1254,-274c4.7,1.1 13.2,4.4 19,7.2c9.4,4.6 11.6,6.3 20.5,15.2c11.1,11.2 15.2,17.5 20.1,30.6c12.4,33 6.4,71.8 -15.1,97c-10.7,12.6 -27.2,22.7 -44.1,27.1c-17.2,4.4 -39.7,3.5 -56.9,-2.2c-13.7,-4.6 -22.6,-10.1 -33,-20.4c-9.7,-9.7 -14.7,-17.4 -19.5,-29.8c-4.9,-12.4 -6.3,-20.6 -6.3,-36.2c0,-20 3.8,-34.6 13,-50.5c5.3,-9.1 19.9,-23.4 29.3,-28.7c8.7,-4.9 22.7,-9.8 32,-11.2c10,-1.5 31.1,-0.6 41,1.9zm1031.8,-0.1c12.6,3.2 26.8,10.3 36,18.1l2.4,2l-5.6,8.9c-5.9,9.3 -9.3,11.9 -13.8,10.6c-1.3,-0.4 -5.4,-2.5 -9.1,-4.7c-12.8,-7.4 -26.3,-10.5 -42.1,-9.5c-33,1.9 -53.6,26.2 -53.6,63.2c0,20.3 6.1,36.9 17.9,48.5c12.1,11.9 25.9,16.6 45.6,15.6c11.4,-0.5 14.9,-1.2 24.8,-4.8l5.7,-2l0,-32.8l-12.3,0c-16.9,0 -16.7,0.1 -16.7,-14.1l0,-10.9l59,0l0,72.8l-4.8,3.1c-17.9,11.4 -42.1,17.1 -68.2,15.8c-14.6,-0.7 -24.7,-3.3 -37.5,-9.7c-16.6,-8.2 -29.3,-20.9 -37.5,-37.5c-7.9,-16 -9.4,-22.7 -9.4,-44c0,-15.7 0.3,-19.1 2.2,-26.4c9.6,-35.1 35,-57.7 71.6,-63.7c11.5,-1.9 34.7,-1.1 45.4,1.5zm-2000.8,12.6l0,13.5l-53,0l0,151l-34,0l0,-151l-54,0l0,-27l141,0l0,13.5zm117,25l0,38.5l84,0l0,-77l33,0l0,179l-33,0l0,-79l-84,0l0,79l-34,0l0,-179l34,0l0,38.5zm328,-25.5l0,13l-79,0l0,50l62,0l0,26l-62,0l0,50l79,0l0,27l-113,0l0,-179l113,0l0,13zm283.9,-10.1c12.9,3.3 20.6,7.4 28.2,15c6.9,6.9 10,12.9 12,23.5c3.3,17.5 -2.9,36.8 -15.5,48.2c-5.8,5.3 -18.2,12.4 -21.5,12.4c-0.9,0 0.3,1.7 3.1,4.2c2.9,2.6 13.7,17.6 27.7,38.3l23.1,34l-16.6,0.3c-14.6,0.2 -17.1,0 -20.2,-1.6c-2.9,-1.5 -7.4,-7.6 -23.9,-32.8c-12.6,-19.3 -21.4,-31.7 -23.4,-33.2c-2.8,-1.9 -4.5,-2.2 -12.5,-2.2l-9.4,0l0,70l-34,0l0,-179.2l37.3,0.5c34.2,0.4 37.9,0.6 45.6,2.6zm427.1,72.6l0,75.5l72,0l0,28l-105,0l0,-179l33,0l0,75.5zm190,0l0,75.5l72,0l0,28l-105,0l0,-179l33,0l0,75.5zm194,14l0,89.5l-34,0l0,-179l34,0l0,89.5zm129.3,-85.5c1.9,1.9 23.7,29.5 48.6,61.2c24.9,31.8 45.5,57.9 45.9,58.2c0.4,0.2 0.6,-27.4 0.4,-61.5l-0.2,-61.9l29,0l0,179l-10.1,0c-6.9,0 -11.1,-0.5 -13.2,-1.5c-2.3,-1.1 -17.2,-19.4 -50.7,-62.1l-47.5,-60.5l-0.3,62l-0.2,62.1l-29,0l0,-179.2l12,0.4l12,0.3l3.3,3.5zm-1727.3,348.4c9.5,1.7 21,6.2 28.2,11c8.7,5.7 8.6,5.4 3.8,14.8c-2.4,4.6 -5,9.1 -5.8,10c-2.5,2.9 -8,2.2 -14.7,-1.8c-12.4,-7.5 -24,-9.9 -35.8,-7.4c-16.8,3.4 -24.5,22.1 -13.9,33.3c4.3,4.6 9.7,7.2 27.2,13.2c9.1,3.1 20.1,7.4 24.5,9.5c22.1,10.6 30.4,30.9 23.8,57.5c-9.4,37.9 -57.5,53.1 -100.1,31.6c-8,-4 -18.2,-11.5 -18.2,-13.3c0,-1.9 10.1,-17.8 12,-18.8c3.6,-1.9 7.6,-1 13.9,3c17.7,11.4 30.9,14.4 45.5,10.3c7.4,-2.1 14.5,-8.5 16.4,-14.9c1.7,-5.7 1.5,-14 -0.4,-18c-3.6,-7.6 -11,-11.8 -31.4,-17.9c-36.4,-10.7 -49,-24 -49,-51.3c0.1,-21.1 10,-36.6 29.6,-45.9c12.7,-6 28.3,-7.8 44.4,-4.9zm232.1,1.4c9.4,2.5 21.3,8.4 29.7,14.7c3.4,2.6 6.2,4.9 6.2,5.2c0,0.9 -9.1,13.5 -11.8,16.5c-3.6,3.9 -7.2,3.6 -15,-1.3c-3.5,-2.2 -9.4,-5.2 -13.1,-6.7c-5.9,-2.3 -8,-2.6 -19.6,-2.6c-10.2,-0.1 -14.2,0.3 -18.5,1.8c-18.5,6.3 -30.7,18.6 -36.6,37c-3.5,10.9 -4.4,28.5 -2,40.7c3.1,15.9 12.9,31.4 24.4,38.8c7.3,4.6 15.6,7.2 25.7,7.8c16.3,1 28.4,-2.5 40.4,-11.6c3,-2.2 6.5,-4.1 7.7,-4.1c1.5,0 4.7,2.7 9.8,8.1c8.8,9.3 8.8,8.9 -0.1,16.8c-7.7,6.7 -21,13.6 -31.9,16.3c-12.9,3.3 -37.2,3.2 -49.3,0c-23.9,-6.5 -41.5,-20.8 -52.2,-42.7c-7.7,-15.8 -9.4,-24.3 -9.3,-46.5c0,-17.2 0.2,-19.1 2.8,-27.4c7.3,-23.9 21.3,-41.6 41.6,-52.4c8.2,-4.4 21.2,-8.7 30.5,-10.2c9.7,-1.5 31.8,-0.5 40.6,1.8zm227.9,0.2c4.7,1.1 13.2,4.4 19,7.2c9.4,4.6 11.6,6.3 20.5,15.2c11.1,11.2 15.2,17.5 20.1,30.6c12.4,33 6.4,71.8 -15.1,97c-10.7,12.6 -27.2,22.7 -44.1,27.1c-17.2,4.4 -39.7,3.5 -56.9,-2.2c-13.7,-4.6 -22.6,-10.1 -33,-20.4c-9.7,-9.7 -14.7,-17.4 -19.5,-29.8c-4.9,-12.4 -6.3,-20.6 -6.3,-36.2c0,-20 3.8,-34.6 13,-50.5c5.3,-9.1 19.9,-23.4 29.3,-28.7c8.7,-4.9 22.7,-9.8 32,-11.2c10,-1.5 31.1,-0.6 41,1.9zm642,-1.6c9.5,1.7 21,6.2 28.2,11c8.7,5.7 8.6,5.4 3.8,14.8c-2.4,4.6 -5,9.1 -5.8,10c-2.5,2.9 -8,2.2 -14.7,-1.8c-12.4,-7.5 -24,-9.9 -35.8,-7.4c-16.8,3.4 -24.5,22.1 -13.9,33.3c4.3,4.6 9.7,7.2 27.2,13.2c9.1,3.1 20.1,7.4 24.5,9.5c22.1,10.6 30.4,30.9 23.8,57.5c-9.4,37.9 -57.5,53.1 -100.1,31.6c-8,-4 -18.2,-11.5 -18.2,-13.3c0,-1.9 10.1,-17.8 12,-18.8c3.6,-1.9 7.6,-1 13.9,3c17.7,11.4 30.9,14.4 45.5,10.3c7.4,-2.1 14.5,-8.5 16.4,-14.9c1.7,-5.7 1.5,-14 -0.4,-18c-3.6,-7.6 -11,-11.8 -31.4,-17.9c-36.4,-10.7 -49,-24 -49,-51.3c0.1,-21.1 10,-36.6 29.6,-45.9c12.7,-6 28.3,-7.8 44.4,-4.9zm-403.5,3.1c29.2,7.3 44.4,26 44.5,54.6c0,23.4 -10.7,41.4 -30,50.7c-13.5,6.4 -18.7,7.3 -42.7,7.9l-21.3,0.5l0,62.8l-34,0l0,-179.2l38.3,0.5c32,0.3 39.3,0.7 45.2,2.2zm244.5,10.5l0,13l-79,0l0,50l62,0l0,26l-62,0l0,50l79,0l0,27l-113,0l0,-179l113,0l0,13z" id="svg_1"/>
  <path d="m1215,119.6c-20.2,4.3 -34.3,18.8 -40.1,40.9c-2.7,10.5 -2.9,29.6 -0.4,40.5c6.3,27.7 26.7,44 55,44c27.1,0 47.2,-15.8 54.1,-42.5c2.5,-9.6 2.5,-32.3 0.1,-41.5c-7.4,-27.6 -27.1,-43.1 -54.7,-42.9c-4.1,0 -10.4,0.7 -14,1.5zm-250,28.3l0,30.1l10.8,0c19.8,-0.1 31,-3 38,-9.9c5.5,-5.6 7.5,-10.6 8,-20.3c0.4,-8 0.2,-9.3 -2.3,-14.3c-3,-6.3 -7,-9.7 -14.7,-12.7c-4.4,-1.8 -8.1,-2.2 -22.5,-2.6l-17.3,-0.4l0,30.1zm-317,324.7c-20.2,4.3 -34.3,18.8 -40.1,40.9c-2.7,10.5 -2.9,29.6 -0.4,40.5c6.3,27.7 26.7,44 55,44c27.1,0 47.2,-15.8 54.1,-42.5c2.5,-9.6 2.5,-32.3 0.1,-41.5c-7.4,-27.6 -27.1,-43.1 -54.7,-42.9c-4.1,0 -10.4,0.7 -14,1.5zm228,30.4l0,32l15.8,0c17.8,0 24.9,-1.3 32.2,-6c7.2,-4.7 11.6,-12.6 12.6,-22.8c1.8,-17.1 -7.9,-30.8 -24.2,-34.1c-3.2,-0.6 -12.6,-1.1 -21.1,-1.1l-15.3,0l0,32z" id="svg_2"/>
 </g>
</svg>